<svg clip-rule="evenodd" fill-rule="evenodd" stroke-linecap="round" stroke-linejoin="round" stroke-miterlimit="1.5" viewBox="0 0 148 148" xmlns="http://www.w3.org/2000/svg" xmlns:xlink="http://www.w3.org/1999/xlink"><linearGradient id="a" gradientUnits="userSpaceOnUse" x1="1.25" x2="145.972" y1="73.6109" y2="73.6109"><stop offset="0" stop-color="#00fff8"/><stop offset="1" stop-color="#b400ff"/></linearGradient><linearGradient id="b"><stop offset="0" stop-color="#de00ff"/><stop offset="1" stop-color="#b12cff"/></linearGradient><linearGradient id="c" gradientTransform="matrix(64.7272 0 0 68.5684 40.1571 78.823)" gradientUnits="userSpaceOnUse" x1="0" x2="1" xlink:href="#b" y1="0" y2="0"/><linearGradient id="d" gradientTransform="matrix(64.7272 0 0 68.5684 30.6654 77.3692)" gradientUnits="userSpaceOnUse" x1="0" x2="1" xlink:href="#b" y1="0" y2="0"/><linearGradient id="e" gradientTransform="matrix(64.7272 0 0 68.5684 32.1691 81.8062)" gradientUnits="userSpaceOnUse" x1="0" x2="1" xlink:href="#b" y1="0" y2="0"/><clipPath id="f"><path clip-rule="evenodd" d="m43.978 43.103h56.063v56.26h-56.063z"/></clipPath><circle cx="73.611" cy="73.611" fill="none" r="72.361" stroke="url(#a)" stroke-width="2.5"/><circle cx="71.374" cy="103.268" fill="url(#c)" r="8.403"/><g clip-path="url(#f)"><path d="m100.041 43.103v56.26h-56.26v-21.218c-3.068-1.068-5.273-3.987-5.273-7.417s2.205-6.349 5.273-7.416v-20.209zm-56.26 35.042c.807.281 1.675.433 2.577.433 4.333 0 7.85-3.517 7.85-7.85 0-4.332-3.517-7.85-7.85-7.85-.902 0-1.77.153-2.577.434z" fill="url(#d)"/></g><circle cx="103.681" cy="68.82" fill="url(#e)" r="5.024"/></svg>